<?xml version="1.0" encoding="UTF-8"?>
<svg id="Layer_1" data-name="Layer 1" xmlns="http://www.w3.org/2000/svg" xmlns:xlink="http://www.w3.org/1999/xlink" viewBox="0 0 302.36 302.36">
  <defs>
    <style>
      .cls-1 {
        fill: none;
      }

      .cls-2 {
        fill: #050a04;
      }

      .cls-3 {
        fill: #e27179;
      }

      .cls-4 {
        fill: #d0d4a2;
      }

      .cls-5 {
        fill: #76a948;
      }

      .cls-6 {
        fill: #030403;
      }

      .cls-7 {
        fill: #acb283;
      }

      .cls-8 {
        fill: #598035;
      }

      .cls-9 {
        fill: #f5f5f2;
      }

      .cls-10 {
        fill: #070806;
      }

      .cls-11 {
        fill: #050804;
      }

      .cls-12 {
        clip-path: url(#clippath);
      }
    </style>
    <clipPath id="clippath">
      <rect class="cls-1" width="302.36" height="302.36"/>
    </clipPath>
  </defs>
  <g class="cls-12">
    <g>
      <path class="cls-10" d="M472.03,745.29c-4.9.87-9.27,3.22-14.16,4.33-14.06,3.19-35.7,2.55-49.38-2.3-26.71-9.48-14.08-23.86-9.18-43.25,2.56-10.12,3.08-20.37,2.72-30.79l-33.01-3c-.44,19.87-2.04,40.63-5.26,60.24-1.48,9.05-4.24,24.95-8.2,32.8-13.3,26.37-61.57,25.26-85.22,16.14-13.93-5.37-14.68-12.41-11.66-26.02,2.11-9.53,6.55-19.26,9.06-28.94,4.93-19.01,6.98-38.57,7.27-58.22-1.42-.08-1.53,3.62-1.71,4.78-2.6,16.65-7.52,53.06-16.84,66.16s-34.88,17.01-49.94,16.06c-11.16-.71-38.02-5.65-39.53-19.47-1.71-15.71,10.92-42.48,14.54-59.51,5.25-24.71,5.85-51.37,3.49-76.52-.73-7.81-2.75-27.14-5.3-33.7-1.65-4.26-8.24-11.28-11.12-15.88-40.27-64.3-46.38-134.01-37.58-208.42,5.58-47.2,21.24-92.86,24-140.49-16.27,1.76-30.79,10.69-46.48,15.01-26.44,7.28-57.15,2-60.68-29.86-16.31-1.82-27.65-12.14-31.55-27.95-5.4-21.9-.68-42.96,16.23-58.19,5.83-5.25,13.02-8.99,18.96-14.04,13.58-11.55,15.93-28.69,26.13-42.87C107.06.49,175.03,4.65,210.56,35.26c48.28,41.61,44.08,124.9,37.36,182.42-6.34,54.38-27,126.87-1.77,177.99,1,2.03,6.56,11.49,7.88,12.19,1.05.56,1.77.29,2.69-.33,92.66-58.85,206.45-55.77,300.62-2.04s193.42,180.78,181.7,299.31c-13.48,136.29-144.88,179.03-264.2,152.19-18.64-4.19-73.89-21.15-81.03-39.97-6.48-17.09,15.87-17.49,26.72-16.72,21.86,1.56,44.78,7.89,66.96,9.04,51.03,2.65,136.46-8.73,152.81-67.28,11.5-41.19-24.29-89.07-65.87-93.66-3.18-.35-5.16-.92-6.48,2.32-12.31,30.27,11.58,71.48,3.63,103.63-8.78,35.48-62.63,35.69-90.06,24.98-18.78-7.34-15.03-17.89-9.48-34.01ZM727.03,723.29c7.71-50.16,2.23-89.2-17.82-135.68-57.75-133.81-205.74-237.75-355.22-208.86-33.2,6.42-64.55,19.29-93.95,35.56-.9,1.28,4.79,6.44,5.98,7.5,2.2,1.95,10.86,7.13,11.58,8.46.87,1.6-.84,3.56-2.04,3.7-5.39.6-21.26-12.28-25.04-16.66-44.63-51.59-17.8-145.61-10.6-206.63,7.81-66.13,9.52-164.92-70.12-186.65-27.9-7.61-61.94-4.27-81.74,18.79-12.2,14.21-15.45,33.9-29.55,46.45-8.64,7.69-18.88,12.06-26.31,21.69-12.42,16.1-14.85,51.52,5.92,61.74,25.8,12.69,79.54-3.11,100.92-20.89,2.19-1.82,6.14-7.12,7.98-8.07,1.36-.7,1.51-.4,2.54.5.77.68,1.42,1.44,1.45,2.54.07,3.09-18.08,26.96-21.48,30.54-13.24,13.94-44.55,33.74-62.02,16.98-1.95-1.87-4.27-7.59-4.64-7.85-1.04-.74-5.18.17-6.86-.15.54,11.84,10.27,18.89,20.96,21.54,23.23,5.75,44.68-8.86,66.25-14.83,30.74-8.5,56.45-7.1,71.97-41.03,1.4-3.06,5.06-17.16,5.83-17.68.55-.37,2.98-.13,3.5.97,2.72,4.57-3.83,23.1-6.52,28.02-5.01,9.17-14.3,18.19-23.08,23.71-.48,4.22.3,8.48.08,12.79-.09,1.79-.86,3.56-1,5.49-6.97,95.78-39.55,178.25-2.76,274.26,10.17,26.55,35.96,69.25,59.24,85.76,2.41,1.71,5.15,1.76,6.99,4.01,3.1,3.79,7.33,15.63,9.28,20.72,15.62,40.78,22.17,81.05,12.78,124.29-2.6,11.97-7.4,23.18-10.53,34.96,2.69-.2,3.58-2.46,6.54-2.94,10.38-1.7,13.19,3.72,14.46,12.94,14.64-15.49,29.22-4.08,25.43,15.02,2.58,2.55,5.51.35,7.56-.02,22.46-4.02,26.17-13.95,30.54-34.96,7.66-36.81,9.04-79.27,1.46-116.04-.24-10.22-4.75-20.7-5.96-30.56-.3-2.47,1.57-1.25,3.33-1.48.48.13,3.58,6.78,4.11,8.06,1.72,4.15,3.67,15.1,7.26,16.74,5.43,2.49,16.85,4.72,23.04,5.96,24.86,4.95,50.47,5.74,75.56,2.12,2.42-.74,4.83-14.59,5.94-18.06,3.18-9.87,7.27-20.69,12.19-29.81,1.53-2.84,8.4-14.48,10.53-15.47,1.33-.62,2.57-.62,3.99-.51.97.96-7.98,16.65-9.17,19.32-10.99,24.62-18.7,60.4-15.71,87.06,2.44,21.74,15.29,42.82,13.88,65.11-.36,5.65-2.34,11.84-2.99,17.5,9.4-5.29,17.39.05,19,10,6.47-5.87,16.24-11.26,22.44-1.95,4.11,6.17,1.29,10.71,2.55,15.95.94,3.92,11.01,1.28,14.01.51,47.71-12.16,13.99-74.36,15.99-106.01,1.27-20.16,10.52-35.08,19-52.5,6.3-12.95,12.75-23.45,16.72-37.78.72-2.59,3.35-18.25,4.78-18.2,3.57,2.44,2.73,7.48,2.38,11.37-1.06,12.02-5.91,23.3-9.41,34.66.93,2.02,15.52,7.31,18.84,9.15,51.97,28.83,74.54,103.63,35.21,151.83-35.17,43.11-95.29,53.56-148.02,50.98-7.36-.36-14.63-.27-22-1-18.78-1.85-43.01-8.29-61.01-8.07-1.85.02-8.14.75-9.06,1.99-2.17,2.93,1.07,4.22,1.57,5.08,3.57,6.03,14.37,12.19,20.96,15.54,29.68,15.15,70.88,22.53,104.04,23.46,1.01,1.67,3.81,1,5.49,1.01,9.66.1,19.36.11,29.02,0,1.68-.02,4.48.66,5.49-1.01,44.66-1.68,97.66-25.58,125.98-60.52,13.23-16.32,29.05-45.48,31.02-66.48.03-.33-.02-.67,0-1l.82-.66c.31-.75.07-1.62.18-2.34ZM126.03,168.29c-6.13,2.03-11.72,5.43-17.75,7.74-7.77,2.99-22.1,4.84-26.11,11.89-.67,1.19-1.36,2.31-1.1,3.76,1.05,3.95,14.52-.32,17.48-1.38,9.39-3.39,18.93-11.09,25.48-18.52.99-1.12,2.4-1.64,1.99-3.5ZM159.03,232.29c-10.79,78.1-32.96,140.91-17.72,222.22,14.12,75.29,61,139.31,128.71,174.78.82-.97-4.59-19.97-5.49-23-1.66-5.58-7.95-26.87-10.47-30.27-1.64-2.22-10.16-7.55-13.05-10.21-60.15-55.33-79.34-134.24-72.98-214.02,3.79-47.59,16.91-94.07,21-141.5.58-6.68,1.51-13.24,1-20l-27.01,7.48-1,2c-.14,10.93-1.5,21.75-2.98,32.52ZM195.03,608.29c.76,24.88-.06,48.54-5.68,72.82-2.77,11.95-7.53,23.26-10.31,35.18,9.76-4.61,17.92,0,18,11,8.9-8.73,22.08-8.41,22.99,6,1.07,2.94-1.28,10.89,2.4,10.96,4.64.09,14.37-3.15,18.62-5.44,10.43-5.63,14.01-19.08,16.93-30.07,5.99-22.61,8.46-46.57,10.96-69.78-.58-1.9-4.06-2.32-5.8-3.27-26.46-14.5-46.78-30.73-67.63-52.37-1.02-1.06-5.28-7.72-4.39-1.62,1.05,7.19,1.95,20.73,3.9,26.6ZM650.03,712.29c1.41,8.99,1.39,18.16-1,26.99,2.53.49,1.77-.46,2.51-1.94,2.97-5.96,4.13-17.25,4.49-24.05.17-3.18.13-6.81,0-10-.16-3.88.14-8.51-2-12-.43-6.39-2.22-12.04-4.51-17.99-10.82-28.09-35.64-51.86-63.88-61.96l-12.63,26.49c.02,3.11,8.95,3.1,12.03,3.94,32.68,8.89,59.68,36.65,64.98,70.52ZM460.9,661.16c.47-5.42-.18-10.94.13-16.37.2-3.42,2-8.99,1.96-12.09-.01-1.12-.52-2.01-1.6-2.33-1.63-.49-15.34,2.68-18.86,2.92-23.07,1.55-47.32-1.41-69.51-7.49-3.43-.94-6.16-3.24-9.98-2.51,1.46,6.84,2.82,13.69,3.87,20.62.56,3.65.38,15.59,3.12,16.88,10.75,4.13,87.6,5.2,90.88.37ZM436.03,673.29h-25s0,15,0,15c-1.6,6.16-2.19,13.15-3.88,19.62-.77,2.95-1.54,5.74-3.12,8.37,9.18-3.4,18-2.29,19.01,9.01,3.58-.22,6.12-4.02,9.71-4.78,13.85-2.93,15.26,11.49,14.28,21.78,6.98.49,23.75-4.02,26.74-10.76,6.64-14.93-11.23-45.13-11.74-61.24-8.65.96-17.62,1.43-26,3ZM188.78,721.55c-5.57-4.46-17.76,8.27-12.28,13.78,1.36,1.36,10.75,6.21,12.01,5.97,2.17-.42,2.73-12.89,2.29-15.28-.14-.75-1.58-4.11-2.02-4.46ZM416.02,740.29c1.03-6.75,4.35-22.24-7.05-18.55-2.95.95-8.61,7.75-7.82,10.85,1.04,4.03,10.91,7.55,14.87,7.7ZM433.76,726.44c-4.27.83-13.86,12.94-9.76,15.38,2.07,1.23,13.02,2.19,15.05.99,3.41-2.02,3.96-18.17-5.29-16.37ZM212.94,744.19c7.25-23.1-16.22-18.58-15.77-1.03,4.97,1.99,10.55.97,15.77,1.03ZM271.36,755.62c-2.6,2.44-5.91,8.22-3.83,11.67,1.07,1.77,12.82,6.89,14.55,5.58,4.58-8.57,2-29.2-10.72-17.24ZM493.03,773.29c-.1-5.66,2.28-10.71-.24-16.26-4.01-8.8-17.71,1.49-15.59,8.54,1.09,3.63,11.95,8.1,15.83,7.71ZM307.9,776.16c4.31-9.81-.81-25.31-11.88-14.1-2.38,2.41-8.74,12.32-3.49,13.23,2.14.37,14.42,1.51,15.36.87ZM517.9,776.16c6.9-24.28-16.36-19.93-16.85-.89l16.85.89Z"/>
      <path class="cls-5" d="M218.03,163.29c2.69-4.92,9.24-23.45,6.52-28.02-.52-1.1-2.95-1.34-3.5-.97-.77.52-4.43,14.62-5.83,17.68-15.53,33.93-41.23,32.53-71.97,41.03-21.58,5.96-43.03,20.57-66.25,14.83-10.7-2.65-20.42-9.7-20.96-21.54,1.68.31,5.82-.6,6.86.15.37.27,2.69,5.98,4.64,7.85,17.46,16.75,48.78-3.04,62.02-16.98,3.4-3.58,21.55-27.45,21.48-30.54-.03-1.1-.68-1.86-1.45-2.54-1.03-.9-1.18-1.2-2.54-.5-1.85.95-5.79,6.24-7.98,8.07-21.38,17.78-75.12,33.58-100.92,20.89-20.77-10.22-18.34-45.64-5.92-61.74,7.43-9.63,17.67-14,26.31-21.69,14.1-12.56,17.35-32.25,29.55-46.45,19.8-23.06,53.84-26.4,81.74-18.79,79.65,21.73,77.93,120.52,70.12,186.65-7.2,61.02-34.03,155.04,10.6,206.63,3.78,4.37,19.65,17.25,25.04,16.66,1.2-.13,2.91-2.09,2.04-3.7-.72-1.33-9.38-6.51-11.58-8.46-1.19-1.06-6.88-6.22-5.98-7.5,29.41-16.27,60.76-29.14,93.95-35.56,149.48-28.89,297.47,75.05,355.22,208.86,20.06,46.48,25.54,85.52,17.82,135.68l-.82.66c-.28.76-.14,1.56-.18,2.34-.02.33.03.67,0,1-7.18,11.8-13.05,24.11-21.18,35.32-33.72,46.49-92.97,72.68-149.32,77.68-40.09,3.56-112.51-3.5-147.48-24.52-1.11-.67-2.89-3-4.03-.48-.51-.86-3.74-2.15-1.57-5.08.92-1.24,7.21-1.97,9.06-1.99,18.01-.22,42.23,6.22,61.01,8.07,7.37.72,14.65.64,22,1,52.73,2.58,112.85-7.88,148.02-50.98,39.33-48.2,16.76-123-35.21-151.83-3.32-1.84-17.91-7.13-18.84-9.15,3.5-11.36,8.34-22.64,9.41-34.66.34-3.89,1.18-8.93-2.38-11.37-1.43-.05-4.06,15.61-4.78,18.2-3.97,14.33-10.42,24.83-16.72,37.78-4.82,2.01-7.88,6.61-10.82,10.68-17.23,23.89-20.96,50.92-20.23,79.86.43,17.09,4.49,31.91-2.19,48.72-2.81,7.08-8.45,16-15.76,18.74-1.25-5.25,1.57-9.78-2.55-15.95-6.2-9.31-15.97-3.92-22.44,1.95-1.61-9.94-9.6-15.29-19-10,.65-5.66,2.63-11.85,2.99-17.5,1.41-22.3-11.44-43.37-13.88-65.11-3-26.67,4.72-62.45,15.71-87.06,1.19-2.67,10.14-18.36,9.17-19.32-1.41-.12-2.65-.11-3.99.51-2.13.99-9,12.63-10.53,15.47-4.92,9.12-9.01,19.93-12.19,29.81-1.12,3.47-3.52,17.32-5.94,18.06-25.08,3.62-50.7,2.83-75.56-2.12-6.19-1.23-17.61-3.47-23.04-5.96-3.58-1.64-5.54-12.6-7.26-16.74-.53-1.28-3.63-7.92-4.11-8.06-1.76.23-3.63-.99-3.33,1.48,1.21,9.86,5.72,20.35,5.96,30.56-2.49,6.59-1.47,13.7-2,20.5-2.98,37.97-10.52,81.13-24.23,116.77-1.75,4.55-4.71,8.99-5.77,13.73-2.05.37-4.98,2.57-7.56.02,3.79-19.11-10.79-30.51-25.43-15.02-1.27-9.23-4.08-14.64-14.46-12.94-2.96.48-3.85,2.74-6.54,2.94,3.13-11.78,7.94-22.99,10.53-34.96,9.38-43.24,2.83-83.51-12.78-124.29-1.95-5.09-6.18-16.93-9.28-20.72-1.84-2.25-4.58-2.3-6.99-4.01-23.28-16.5-49.07-59.21-59.24-85.76-36.79-96-4.21-178.47,2.76-274.26,10.17-9.89,19.89-23.89,23.87-37.69.45-1.55,1.74-2.5.13-4.31ZM87.75,60.51c-14.86,3.06-18.22,38.76.34,34.35,14.3-3.4,18.34-38.19-.34-34.35ZM152.78,64.52c-20.65,1.25-21.82,41.63-3.03,45.54,14.18,2.95,22.62-10.62,22.32-23.23-.24-10-7.93-23-19.28-22.31ZM36.95,124.38c-8.23-2.21-7.08,12.82-1.43,12.96,4.2.1,2.53-10.44,1.43-12.96ZM78.74,128.49c-6.75,1.52-14.56,17.76-3.66,15.38s16.02-18.16,3.66-15.38ZM399.85,387.53c-12.95.38-34.44,6.03-30.61,23.05,1.3,5.78,13.81,12.93,19.25,14.74,10.31,3.44,26.98,3.63,37.32.24,5.13-1.68,11.79-5.26,12.99-11,3.95-18.88-24.64-27.46-38.95-27.04ZM529.77,424.52c-5.15.87-10.75,5.43-11.29,10.73-1.71,16.9,36.43,32.29,46.01,16.99,2.67-4.27,1.74-8.31-.27-12.63-5.08-10.89-23.09-17-34.44-15.09ZM352.79,436.55c-22.16,3.21-23.73,23.69-2.74,31.23,11.16,4.01,34.59,1.88,34.04-13.95-.49-14.07-19.78-18.94-31.29-17.27ZM457.76,441.52c-13.68,2.05-24.72,13.29-15.17,26.71,10.99,15.47,55.82,23.33,60.22,2.34,4.73-22.59-27.88-31.63-45.04-29.05ZM504.03,654.28c.58-9.22-13.76-7.52-20-5.98-.11,1.57-.32,2.35,1.02,3.47,1.78,1.48,17.91,3.47,18.98,2.52ZM295.03,665.28c.51.77,18.03,4.42,16.99-.48-.46-2.17-7.32-4.31-9.49-4.33-2.32-.02-9.79,1.35-7.51,4.81ZM480.03,671.29c-1.29,1.19,3.19,4.59,4.29,5.2,6.88,3.84,15.67,3.47,21.7-1.72.93-3.93-12.87-2.32-15.54-2.44-3.45-.17-6.81-1.68-10.45-1.04ZM311.03,688.3c-.48-.73-15.78-2.36-17.35-1.86-4.55,1.45,1.75,5.69,4.32,6.38,4.1,1.11,13.74,1.64,13.03-4.52Z"/>
      <path class="cls-4" d="M189.03,210.29c-4.09,47.43-17.21,93.92-21,141.5-6.36,79.78,12.84,158.69,72.98,214.02,2.89,2.66,11.41,7.98,13.05,10.21,2.51,3.41,8.81,24.69,10.47,30.27.9,3.03,6.31,22.03,5.49,23-67.71-35.47-114.59-99.49-128.71-174.78-15.25-81.3,6.92-144.12,17.72-222.22l10.08-8.42,19.92-13.58Z"/>
      <path class="cls-7" d="M159.03,232.29c1.49-10.77,2.84-21.59,2.98-32.52l1-2,27.01-7.48c.51,6.76-.42,13.32-1,20l-19.92,13.58-10.08,8.42Z"/>
      <path class="cls-3" d="M126.03,168.29c.41,1.85-1.01,2.38-1.99,3.5-6.55,7.43-16.09,15.13-25.48,18.52-2.96,1.07-16.42,5.33-17.48,1.38-.27-1.46.43-2.58,1.1-3.76,4.01-7.05,18.33-8.9,26.11-11.89,6.03-2.32,11.62-5.71,17.75-7.74Z"/>
      <path class="cls-8" d="M218.03,163.29c1.61,1.81.31,2.76-.13,4.31-3.97,13.8-13.7,27.8-23.87,37.69.14-1.93.91-3.7,1-5.49.22-4.31-.56-8.57-.08-12.79,8.78-5.52,18.07-14.54,23.08-23.71Z"/>
      <path class="cls-6" d="M152.78,64.52c11.36-.69,19.04,12.31,19.28,22.31.3,12.62-8.14,26.19-22.32,23.23-18.79-3.91-17.62-44.29,3.03-45.54ZM150.72,73.42c-4.05,1.19-5.01,9.62-1.72,12.39,10.3,3.95,10.27-14.9,1.72-12.39Z"/>
      <path class="cls-11" d="M87.75,60.51c18.69-3.84,14.64,30.95.34,34.35-18.57,4.41-15.2-31.29-.34-34.35ZM87.15,67.42c-1.09.74-2.65,8.58,1.39,8.94,3.82.34,4.96-4.23,4.39-7.44-.47-1.89-4.73-2.21-5.77-1.51Z"/>
      <path class="cls-11" d="M78.74,128.49c12.36-2.78,7.43,12.95-3.66,15.38s-3.09-13.86,3.66-15.38Z"/>
      <path class="cls-2" d="M36.95,124.38c1.1,2.52,2.77,13.06-1.43,12.96-5.65-.13-6.81-15.17,1.43-12.96Z"/>
      <path class="cls-9" d="M150.72,73.42c8.55-2.51,8.58,16.34-1.72,12.39-3.3-2.78-2.34-11.2,1.72-12.39Z"/>
      <path class="cls-9" d="M87.15,67.42c1.04-.71,5.3-.38,5.77,1.51.57,3.2-.56,7.78-4.39,7.44-4.04-.36-2.48-8.2-1.39-8.94Z"/>
    </g>
    <rect class="cls-1" width="330.57" height="330.57"/>
  </g>
</svg>